<svg width="487" height="741" viewBox="0 0 487 741" fill="none" xmlns="http://www.w3.org/2000/svg">
<mask id="mask0_2_766" style="mask-type:luminance" maskUnits="userSpaceOnUse" x="104" y="186" width="598" height="505">
<path d="M700.383 310.588C710.173 240.656 657.621 222.075 621.648 234.571C570.685 252.279 569.407 281.814 512.548 219.315C493.244 198.092 464.833 183.739 435.666 186.87C414.69 189.127 394.625 200.678 383.202 218.415C376.847 228.282 373.243 239.642 367.885 250.085C362.527 260.528 354.689 270.572 343.558 274.294C332.838 277.878 320.99 274.943 310.691 270.281C285.925 259.068 266.451 237.964 240.602 228.958C218.811 221.364 191.273 221.177 170.579 232.036C143.492 246.251 129.585 276.659 119.714 304.103C108.138 336.287 103.291 370.745 104.254 404.883C105.485 448.615 116.081 491.798 132.579 532.318C147.266 568.391 166.882 602.862 193.714 631.093C236.146 675.739 314.504 717.478 368.893 668.119C434.377 608.693 371.764 539.385 448.117 557.669C493.805 568.609 573.68 557.165 564.6 458.928C555.52 360.69 686.283 411.302 700.383 310.588Z" fill="white"/>
</mask>
<g mask="url(#mask0_2_766)">
<path d="M266.621 122.931C298.181 152.896 296.096 192.665 337.491 155.831C370.093 126.822 440.511 101.135 476.198 185.545C478.878 192.149 482.457 198.352 486.834 203.976L486.866 466.063C469.413 472.122 449.394 471.029 433.248 462.069C423.713 456.779 415.779 449.061 406.808 442.865C397.837 436.669 387.012 431.881 376.262 433.716C365.913 435.488 357.5 443.091 351.117 451.428C335.762 471.479 329.082 497.304 311.869 516.029C297.364 531.811 274.901 544.049 253.193 544.242C224.779 544.493 200.043 525.704 179.919 507.568C157.224 487.116 138.699 462.214 124.689 435.107L124.655 147.372C130.684 138.494 137.666 130.303 145.477 122.943L266.621 122.931Z" fill="url(#paint0_linear_2_766)"/>
<path d="M486.825 122.904L486.857 361.608C475.506 368.848 462.468 373.012 449.021 373.693C429.001 374.513 408.537 366.467 395.316 351.408C387.965 343.029 382.989 332.861 376.495 323.802C370.001 314.744 361.226 306.4 350.249 304.464C339.677 302.599 328.957 307.016 319.938 312.838C310.163 319.148 301.678 327.193 293.198 335.234C282.863 345.036 272.528 354.839 259.88 361.477C240.474 371.662 214.631 375.695 193.67 368.393C166.234 358.834 148.906 332.213 135.793 307.817C131.662 300.122 127.951 292.208 124.675 284.11L124.654 122.947L486.825 122.904Z" fill="url(#paint1_linear_2_766)"/>
</g>
<defs>
<linearGradient id="paint0_linear_2_766" x1="369.211" y1="518.199" x2="349.73" y2="356.772" gradientUnits="userSpaceOnUse">
<stop stop-color="#228BC5"/>
<stop offset="1" stop-color="#1E2369"/>
</linearGradient>
<linearGradient id="paint1_linear_2_766" x1="381.037" y1="431.294" x2="364.527" y2="272.103" gradientUnits="userSpaceOnUse">
<stop stop-color="#1FA6B2"/>
<stop offset="1" stop-color="#2A8B4B"/>
</linearGradient>
</defs>
</svg>
