<svg width="485" height="595" viewBox="0 0 485 595" fill="none" xmlns="http://www.w3.org/2000/svg">
<mask id="mask0_2_773" style="mask-type:luminance" maskUnits="userSpaceOnUse" x="-298" y="0" width="783" height="595">
<path d="M456.135 443.794C513.955 377.222 471.565 322.018 425.395 310.636C359.983 294.513 338.554 324.572 321.527 220.448C315.749 185.097 295.762 150.733 263.089 134.178C239.589 122.278 210.721 120.721 186.689 131.524C173.319 137.535 161.821 146.977 149.107 154.268C136.393 161.559 121.353 166.745 107.165 163.068C93.502 159.528 83.091 148.397 75.478 136.509C57.171 107.921 51.134 72.5748 30.191 45.5548C12.539 22.7798 -16.171 3.85479 -45.227 1.14679C-83.26 -2.39321 -118.508 19.9898 -147.512 42.0128C-181.526 67.8408 -210.039 100.627 -232.253 137.03C-260.71 183.663 -278.989 236.09 -289.275 289.741C-298.433 337.506 -301.339 386.941 -292.446 434.759C-278.383 510.379 -224.72 607.386 -134.192 592.696C-25.199 575.011 -43.616 459.845 23.898 530.927C64.298 573.461 155.725 615.809 213.045 506.762C270.365 397.715 372.862 539.666 456.135 443.794Z" fill="white"/>
</mask>
<g mask="url(#mask0_2_773)">
<path d="M130.936 462.277C106.909 457.628 84.8359 442.326 73.3619 420.711C66.9759 408.687 63.9169 395.211 58.7379 382.617C53.5589 370.023 45.481 357.65 32.975 352.264C22.659 347.823 10.919 348.829 -0.000976562 351.964V69.9951H290.686C306.092 89.7441 313.822 118.822 306.431 160.357C296.922 213.79 327.025 231.586 361.998 248.09V429.24C358.078 428.213 354.248 426.872 350.544 425.229C293.36 399.804 294.758 365.541 222.955 432.252C202.655 451.116 175.505 463.865 147.7 463.866C142.074 463.873 136.46 463.34 130.936 462.277Z" fill="url(#paint0_linear_2_773)"/>
<path d="M248.92 341.734C217.645 355.125 179.92 356.634 149.995 338.887C128.472 326.128 112.511 303.787 108.915 279.021C106.915 265.248 108.621 251.215 107.982 237.312C107.343 223.409 103.832 208.712 93.6541 199.212C83.854 190.068 69.623 187.401 56.218 187.362C41.689 187.32 27.332 189.972 12.983 192.625C8.65603 193.425 4.33 194.225 0 194.951V-74H308.285C312.155 -65.742 322.92 -59.57 345.985 -55.061C351.398 -53.9939 356.746 -52.617 362.001 -50.937V366.274C329.446 329.063 331.93 306.191 248.92 341.734Z" fill="url(#paint1_linear_2_773)"/>
</g>
<defs>
<linearGradient id="paint0_linear_2_773" x1="134.301" y1="446.93" x2="193.745" y2="325.436" gradientUnits="userSpaceOnUse">
<stop stop-color="#FEE00A"/>
<stop offset="1" stop-color="#CE286F"/>
</linearGradient>
<linearGradient id="paint1_linear_2_773" x1="127.424" y1="367.154" x2="216.602" y2="223.313" gradientUnits="userSpaceOnUse">
<stop stop-color="#EA7A15"/>
<stop offset="1" stop-color="#D82B1B"/>
</linearGradient>
</defs>
</svg>
